<svg width="176" height="24" viewBox="0 0 176 24" fill="none" xmlns="http://www.w3.org/2000/svg">
<path d="M8.57349 15.0803H5.04696V22.9526H0.62059V1.44785H8.60308C11.1408 1.44785 13.0985 2.01396 14.4755 3.14639C15.8528 4.27881 16.5413 5.87883 16.5413 7.94644C16.5413 9.41371 16.2215 10.6396 15.5823 11.6242C14.9527 12.599 13.9935 13.3769 12.705 13.9579L17.3528 22.7459V22.9526H12.6016L8.57349 15.0803ZM5.04696 11.4914H8.61777C9.72935 11.4914 10.5899 11.2108 11.2 10.6495C11.8098 10.0783 12.1147 9.29545 12.1147 8.30103C12.1147 7.28686 11.8245 6.48926 11.2443 5.90824C10.6737 5.32743 9.79335 5.03692 8.60308 5.03692H5.04696V11.4914ZM18.9758 14.8145C18.9758 13.2292 19.2807 11.8162 19.8907 10.5755C20.5005 9.33494 21.376 8.37497 22.517 7.69543C23.668 7.0161 25.0008 6.67643 26.5157 6.67643C28.67 6.67643 30.4258 7.33601 31.7833 8.65561C33.1505 9.97499 33.9129 11.767 34.0703 14.0316L34.0999 15.1246C34.0999 17.5764 33.4162 19.5457 32.0488 21.0325C30.6816 22.5096 28.8469 23.248 26.5453 23.248C24.2434 23.248 22.4039 22.5096 21.0268 21.0325C19.6595 19.5556 18.9758 17.547 18.9758 15.0065V14.8145ZM23.2401 15.1246C23.2401 16.641 23.5253 17.8028 24.0959 18.6103C24.6665 19.4079 25.4828 19.8066 26.5453 19.8066C27.5781 19.8066 28.3846 19.4127 28.965 18.625C29.5455 17.8276 29.8355 16.5574 29.8355 14.8145C29.8355 13.3277 29.5455 12.1756 28.965 11.3584C28.3846 10.5411 27.5683 10.1325 26.5157 10.1325C25.4729 10.1325 24.6665 10.5411 24.0959 11.3584C23.5253 12.1657 23.2401 13.4212 23.2401 15.1246ZM43.366 19.8066C44.153 19.8066 44.7924 19.59 45.2843 19.1569C45.7759 18.7235 46.0317 18.1475 46.0515 17.4287H50.0502C50.0403 18.5118 49.745 19.5064 49.1648 20.4122C48.5844 21.3083 47.7876 22.0074 46.7744 22.5096C45.7711 23.0018 44.6595 23.248 43.4399 23.248C41.1576 23.248 39.3575 22.5243 38.0394 21.0768C36.7213 19.6196 36.0622 17.6108 36.0622 15.0509V14.7702C36.0622 12.3085 36.7163 10.3443 38.0247 8.87701C39.3329 7.40996 41.1282 6.67643 43.4103 6.67643C45.407 6.67643 47.0057 7.24737 48.2056 8.38967C49.4156 9.52189 50.0304 11.0335 50.0502 12.924H46.0515C46.0317 12.0968 45.7759 11.4273 45.2843 10.9152C44.7924 10.3934 44.1431 10.1325 43.3364 10.1325C42.343 10.1325 41.5905 10.4968 41.0791 11.2255C40.5773 11.9443 40.3265 13.116 40.3265 14.7406V15.1838C40.3265 16.8282 40.5773 18.0097 41.0791 18.7286C41.5806 19.4472 42.343 19.8066 43.366 19.8066ZM58.2834 16.5425L56.7488 18.0786V22.9526H52.4846V0.266266H56.7488V12.8354L57.5752 11.7718L61.6622 6.97177H66.7823L61.0131 13.633L67.2839 22.9526H62.3854L58.2834 16.5425ZM75.6796 23.248C73.3385 23.248 71.4301 22.5292 69.9547 21.0917C68.4891 19.6541 67.7561 17.739 67.7561 15.3462V14.9326C67.7561 13.3277 68.066 11.8949 68.6857 10.6346C69.3054 9.36434 70.1809 8.38967 71.3122 7.71034C72.4531 7.02093 73.7517 6.67643 75.2074 6.67643C77.3913 6.67643 79.1077 7.36563 80.3569 8.74404C81.616 10.1227 82.2456 12.0773 82.2456 14.6076V16.3505H72.0794C72.217 17.3943 72.6302 18.2311 73.3188 18.8613C74.0171 19.4915 74.8977 19.8066 75.9599 19.8066C77.6026 19.8066 78.8865 19.2111 79.8111 18.0196L81.9062 20.3679C81.2668 21.2739 80.4012 21.9828 79.3094 22.4947C78.2175 22.997 77.0075 23.248 75.6796 23.248ZM75.1927 10.1325C74.3468 10.1325 73.6583 10.418 73.127 10.9892C72.6057 11.5603 72.2712 12.3774 72.1237 13.441H78.0553V13.1013C78.0356 12.156 77.7798 11.4273 77.2879 10.9152C76.7962 10.3934 76.0976 10.1325 75.1927 10.1325ZM89.7855 3.04304V6.97177H92.5152V10.1029H89.7855V18.0786C89.7855 18.6693 89.8986 19.0928 90.1248 19.3489C90.351 19.6047 90.784 19.7329 91.4234 19.7329C91.8955 19.7329 92.3136 19.6984 92.6774 19.6295V22.864C91.8414 23.1201 90.9806 23.248 90.0954 23.248C87.1051 23.248 85.5803 21.7366 85.5213 18.7137V10.1029H83.1899V6.97177H85.5213V3.04304H89.7855ZM112.64 22.9526H108.215L99.5977 8.80328V22.9526H95.1711V1.44785H99.5977L108.229 15.6268V1.44785H112.64V22.9526ZM123.574 23.248C121.234 23.248 119.324 22.5292 117.849 21.0917C116.384 19.6541 115.652 17.739 115.652 15.3462V14.9326C115.652 13.3277 115.96 11.8949 116.581 10.6346C117.201 9.36434 118.076 8.38967 119.207 7.71034C120.348 7.02093 121.647 6.67643 123.102 6.67643C125.286 6.67643 127.003 7.36563 128.251 8.74404C129.51 10.1227 130.14 12.0773 130.14 14.6076V16.3505H119.975C120.111 17.3943 120.525 18.2311 121.213 18.8613C121.912 19.4915 122.793 19.8066 123.855 19.8066C125.498 19.8066 126.782 19.2111 127.706 18.0196L129.802 20.3679C129.162 21.2739 128.295 21.9828 127.204 22.4947C126.113 22.997 124.902 23.248 123.574 23.248ZM123.087 10.1325C122.241 10.1325 121.553 10.418 121.022 10.9892C120.501 11.5603 120.166 12.3774 120.019 13.441H125.951V13.1013C125.93 12.156 125.674 11.4273 125.183 10.9152C124.692 10.3934 123.993 10.1325 123.087 10.1325ZM146.46 17.1481L148.554 6.97177H152.671L148.598 22.9526H145.029L142.005 12.8944L138.979 22.9526H135.424L131.351 6.97177H135.468L137.548 17.1334L140.469 6.97177H143.554L146.46 17.1481ZM163.443 18.5366C163.443 18.0146 163.183 17.606 162.66 17.3107C162.15 17.0055 161.324 16.7345 160.182 16.4982C156.386 15.7008 154.487 14.0858 154.487 11.6538C154.487 10.2359 155.072 9.0543 156.243 8.10903C157.423 7.15389 158.963 6.67643 160.86 6.67643C162.887 6.67643 164.505 7.15389 165.716 8.10903C166.935 9.06417 167.546 10.3048 167.546 11.8311H163.282C163.282 11.2204 163.084 10.7184 162.69 10.3245C162.297 9.92079 161.682 9.71892 160.845 9.71892C160.127 9.71892 159.571 9.8813 159.179 10.2063C158.784 10.5312 158.589 10.9448 158.589 11.4471C158.589 11.9197 158.81 12.3037 159.252 12.599C159.706 12.8845 160.463 13.1357 161.525 13.3523C162.587 13.559 163.483 13.7953 164.211 14.0613C166.463 14.8883 167.59 16.3211 167.59 18.3593C167.59 19.8165 166.964 20.998 165.716 21.904C164.465 22.7999 162.853 23.248 160.875 23.248C159.538 23.248 158.348 23.0117 157.305 22.539C156.273 22.0565 155.46 21.4018 154.871 20.5748C154.281 19.7377 153.985 18.8367 153.985 17.8717H158.027C158.067 18.63 158.348 19.2111 158.868 19.6146C159.391 20.0183 160.088 20.2202 160.965 20.2202C161.781 20.2202 162.396 20.0677 162.809 19.7623C163.231 19.4472 163.443 19.0386 163.443 18.5366Z" fill="#E1E1E6"/>
<path d="M170.57 20.8554C170.57 20.1759 170.796 19.6245 171.247 19.2012C171.711 18.7777 172.286 18.566 172.974 18.566C173.673 18.566 174.248 18.7777 174.702 19.2012C175.163 19.6245 175.394 20.1759 175.394 20.8554C175.394 21.5249 175.167 22.0715 174.716 22.4947C174.263 22.9084 173.684 23.1151 172.974 23.1151C172.276 23.1151 171.701 22.9084 171.247 22.4947C170.796 22.0715 170.57 21.5249 170.57 20.8554Z" fill="#04D361"/>
</svg>
