<svg width="90" height="80" viewBox="0 0 90 80" fill="none" xmlns="http://www.w3.org/2000/svg">
<path d="M27.7749 25.4298C27.7749 25.4298 26.0603 16.2166 27.6686 12.7321C29.2765 9.24766 33.5424 10.1483 33.941 11.8315C34.3398 13.5146 34.5524 17.6783 35.7616 17.7817C36.971 17.885 38.2867 18.5642 37.981 19.5829C37.6753 20.6017 35.6553 21.1628 35.549 21.6057C35.4427 22.0486 36.2535 26.3304 36.2535 26.3304L27.7749 25.4298Z" fill="#8157E4"/>
<path d="M31.1636 18.3131C31.5307 18.3131 31.8281 17.6587 31.8281 16.8514C31.8281 16.0441 31.5307 15.3897 31.1636 15.3897C30.7968 15.3897 30.4991 16.0441 30.4991 16.8514C30.4991 17.6587 30.7968 18.3131 31.1636 18.3131Z" fill="#121214"/>
<path d="M33.3296 18.7415C33.6966 18.7415 33.994 18.087 33.994 17.2798C33.994 16.4725 33.6966 15.8181 33.3296 15.8181C32.9625 15.8181 32.6651 16.4725 32.6651 17.2798C32.6651 18.087 32.9625 18.7415 33.3296 18.7415Z" fill="#121214"/>
<path d="M30.6983 14.2971C31.416 14.1199 32.7449 13.9575 33.8879 14.681C34.0074 14.7548 34.1403 14.5924 34.0472 14.4743C33.4627 13.6622 32.2533 12.5549 30.592 14.0461C30.4857 14.1347 30.5788 14.3266 30.6983 14.2971Z" fill="#121214"/>
<path d="M33.7816 20.7492C33.8214 20.6163 33.7417 20.4687 33.6222 20.4539C33.0507 20.3358 31.5226 19.9519 30.3131 19.1546C30.3131 19.1546 30.5125 18.5936 30.0074 18.9331C29.5025 19.2727 30.5524 23.3773 32.5326 22.6391C33.2234 22.3733 33.6222 21.2512 33.7816 20.7492Z" fill="#121214"/>
<path d="M29.2897 11.492C29.2897 11.492 28.1734 8.90814 24.4391 8.90814C20.7048 8.90814 17.2495 17.1173 13.8209 16.2167C10.3789 15.316 13.0102 18.579 14.9372 18.579C14.9372 18.579 14.8309 19.2582 14.0202 19.5978C13.2096 19.9374 15.5352 21.6205 17.4622 20.3803C17.4622 20.3803 17.3558 20.9414 16.7578 21.7239C16.1465 22.5064 18.0735 23.1856 19.1898 21.0447C20.3061 18.9038 23.1368 13.1751 26.5786 13.6329C30.0074 14.0758 29.2897 11.492 29.2897 11.492Z" fill="#8157E4"/>
<path d="M46.1406 47.5179C46.1406 47.5179 53.4497 56.5243 52.5196 62.5778C51.5893 68.6313 45.4762 67.5979 45.4762 67.5979L40.2932 68.779L38.2998 69.0743C38.2998 69.0743 39.6288 65.8261 37.6354 61.3967L44.4129 59.6249L39.4029 51.6372L46.1406 47.5179Z" fill="white"/>
<path d="M25.356 58.0746C26.3262 60.1858 27.2299 62.7105 27.5488 65.2059C27.5754 65.4272 27.2964 65.516 27.2165 65.3091C26.6984 64.0246 25.7813 62.1643 24.7448 61.9723C24.7448 61.9723 14.379 61.6772 10.658 61.5295C6.93698 61.3818 6.80408 74.9652 12.7843 76.737C18.7645 78.5089 18.3658 74.8178 18.3658 74.8178C18.3658 74.8178 15.4289 73.9761 14.1797 71.6284C14.0867 71.4514 14.286 71.2445 14.4322 71.3775C15.5751 72.352 18.2595 74.3008 21.542 74.5224C25.9274 74.8177 34.9642 72.4554 37.3564 68.0258C39.0308 64.9254 35.6286 59.0786 33.4361 55.845C34.0074 56.1993 34.6188 56.657 35.2433 57.2772C35.5091 57.543 35.8679 57.6464 36.2134 57.5872L46.8052 55.6237L44.28 49.0679C41.5293 50.2639 38.7385 52.405 35.2433 54.4424C30.6585 57.1148 26.8047 57.8826 25.356 58.0746Z" fill="white"/>
<path d="M14.4455 71.3922C15.5884 72.3666 18.2728 74.3155 21.5552 74.537C21.7414 74.5517 21.9406 74.5517 22.14 74.5664C17.9273 70.6982 18.2462 64.1427 18.512 61.8097C15.6017 61.7212 12.3989 61.618 10.658 61.5441C6.93698 61.3964 6.80408 74.9799 12.7843 76.7517C18.7645 78.5235 18.3658 74.8322 18.3658 74.8322C18.3658 74.8322 15.4289 73.9908 14.1797 71.6431C14.0867 71.4511 14.286 71.2592 14.4455 71.3922Z" fill="#464650"/>
<path d="M77.57 13.3374C75.6963 10.8864 73.0251 9.12946 70.128 7.85968C69.7958 8.77509 69.1314 9.55762 68.2409 9.7348C67.9884 9.77909 67.6031 9.98581 67.3372 10.0153C67.2707 10.0596 67.2043 10.1039 67.1378 10.1482C67.1246 10.163 67.1114 10.163 67.098 10.1777C67.0581 10.222 66.965 10.3106 66.8721 10.3549C66.6994 10.5173 66.5398 10.6945 66.367 10.8717C66.1544 11.1079 65.9418 11.3442 65.7424 11.5952C65.716 11.6247 65.6894 11.669 65.6627 11.7133C65.6229 11.8019 65.5831 11.9052 65.5298 11.9938C65.4767 12.1857 65.4103 12.3629 65.3704 12.5549C65.3438 12.7025 65.3172 12.8502 65.2908 12.9978C65.2773 13.234 65.2375 13.4703 65.2243 13.7065C65.1977 14.3119 65.1843 14.9172 65.1977 15.5078C65.2109 16.6594 65.2507 17.8111 65.171 18.9627C65.1578 19.2433 65.1046 19.5238 65.0381 19.7748C73.3706 21.9452 72.8124 28.1759 64.0679 29.5047C53.4366 31.1288 41.7419 26.6994 41.7419 26.6994C41.7419 26.6994 25.5953 21.6056 17.6216 26.3302C9.648 31.055 5.74094 48.1967 15.0967 54.6786C26.8577 62.8287 38.4993 49.7177 47.1639 48.8168C46.5127 47.6062 46.8582 45.8493 47.6688 44.8599C47.8949 44.5794 48.2138 44.3579 48.5593 44.1955C48.5195 44.1366 48.4662 44.0628 48.4264 44.0036C48.3865 43.9742 48.267 43.8116 48.1607 43.6935C47.9479 43.4426 47.7353 43.2064 47.5095 42.9849C46.6855 42.1581 45.6622 41.4346 45.1439 40.2978C44.7187 39.3527 44.6256 38.3932 44.9978 37.4038C45.3167 36.5771 46.021 35.6469 46.8849 35.5288C47.031 35.5139 47.1771 35.4845 47.3101 35.4696C47.0444 35.4549 46.7785 35.4254 46.5127 35.4254L46.4728 34.9087C46.4728 34.9087 44.7453 32.4576 43.8947 30.5383C43.8284 30.4055 44.001 30.2874 44.0941 30.4055C45.051 31.7932 47.0576 34.5544 48.3335 35.2038C80.8925 37.2561 84.2148 22.0486 77.57 13.3374ZM44.0276 35.5139C41.6755 35.7797 39.1239 36.5179 36.373 37.8467C27.0703 42.3205 17.409 42.6895 15.2694 39.2199C15.1897 39.1018 15.3226 38.9541 15.4289 39.0426C15.7478 39.3084 16.1997 39.5889 16.7312 39.6185C16.7844 39.6185 16.8376 39.5742 16.8509 39.5153C16.9572 38.7475 17.728 34.259 20.4921 31.7932C20.6118 31.69 20.7446 31.867 20.6516 31.9851C20.1466 32.5759 19.5752 33.3877 19.2562 34.3328C19.1366 34.6725 19.1499 35.0415 19.2961 35.3515C19.8808 36.7837 21.6484 40.9918 21.8343 41.0064C23.0039 41.095 25.9807 40.9622 31.0705 39.4561C36.4661 37.8616 40.1339 35.0564 44.0276 35.5139Z" fill="white"/>
<path d="M41.3831 51.5191C40.8116 51.5633 40.5193 52.3311 40.9047 52.8036C42.1273 54.3243 43.6954 57.3806 42.2868 61.9872C40.4262 68.0703 8.06664 77.3425 0.15946 79.5276C-0.0797488 79.6014 -0.0398938 80 0.212604 80L47.0576 79.8523C47.2438 79.8523 47.4165 79.823 47.5893 79.7638C51.0311 78.5678 82.5669 66.5643 88.3877 59.6249C93.185 53.9257 85.9823 49.88 83.5503 48.7285C83.0852 48.507 82.5801 48.4185 82.0752 48.4627L41.3831 51.5191Z" fill="url(#paint0_radial_628_4)"/>
<path d="M43.8947 54.826C43.9611 54.9884 44.001 55.0622 44.0542 55.2246C45.476 55.1065 46.1937 55.0476 47.6422 54.9145C47.5757 54.7671 47.5493 54.6783 47.4828 54.5309C46.0342 54.6637 45.3167 54.7228 43.8947 54.826Z" fill="#04D361"/>
<path d="M46.1805 55.8452C46.2337 55.9927 46.247 56.0665 46.3002 56.2289C46.7122 56.1846 46.9248 56.1699 47.3501 56.1257C47.3102 55.978 47.2836 55.9041 47.2303 55.7564C46.8051 55.786 46.5925 55.8156 46.1805 55.8452Z" fill="#04D361"/>
<path d="M47.8017 55.6975C47.8547 55.845 47.8682 55.9188 47.9212 56.0665C49.2768 55.9337 49.9679 55.8599 51.3765 55.7122C51.3234 55.5645 51.31 55.5056 51.2569 55.3579C49.8481 55.4907 49.1705 55.5645 47.8017 55.6975Z" fill="#6F33EA"/>
<path d="M51.9615 55.284C52.0147 55.4317 52.0412 55.4906 52.0944 55.6383C53.8219 55.4613 55.5364 55.284 57.264 55.0921C57.1975 54.9593 57.1709 54.9001 57.1046 54.7673C55.3901 54.9297 53.6758 55.1067 51.9615 55.284Z" fill="#6F33EA"/>
<path d="M44.7853 57.1588C44.8252 57.3065 44.8384 57.3804 44.865 57.5281C45.2636 57.4836 45.4762 57.4542 45.875 57.41C45.8484 57.2623 45.8352 57.1884 45.7951 57.0407C45.3833 57.085 45.1839 57.1146 44.7853 57.1588Z" fill="#04D361"/>
<path d="M46.3665 56.982C46.3931 57.1297 46.4197 57.2036 46.4463 57.351C47.7753 57.2036 48.4529 57.1148 49.8483 56.9673C49.8217 56.8343 49.8085 56.7605 49.7686 56.6128C48.3865 56.7605 47.7088 56.8343 46.3665 56.982Z" fill="#6F33EA"/>
<path d="M56.666 55.83C56.7192 55.9631 56.7324 56.022 56.7723 56.155C58.0083 56.0073 59.2573 55.8596 60.4934 55.7119C60.4401 55.5938 60.4137 55.52 60.3472 55.4019C58.8719 55.5938 58.1278 55.6677 56.666 55.83Z" fill="#04D361"/>
<path d="M50.4861 56.5243C50.5262 56.657 50.5394 56.7309 50.566 56.8637C52.2935 56.672 54.0345 56.4651 55.7622 56.2731C55.7221 56.1403 55.6957 56.0812 55.6559 55.9484C53.9414 56.1403 52.2139 56.3323 50.4861 56.5243Z" fill="#6F33EA"/>
<path d="M46.619 59.0786C46.619 59.2114 46.619 59.2852 46.619 59.418C46.9379 59.3738 47.0974 59.3591 47.4164 59.3148C47.4164 59.1818 47.4296 59.1229 47.4296 58.9898C47.0974 59.0194 46.9379 59.0343 46.619 59.0786Z" fill="#04D361"/>
<path d="M48.0011 58.9013C48.0011 59.0341 48.0011 59.0932 47.9879 59.226C49.3434 59.0487 50.0477 58.9456 51.4829 58.7683C51.4829 58.6355 51.4829 58.5763 51.4829 58.4435C50.0609 58.6355 49.3566 58.724 48.0011 58.9013Z" fill="#6F33EA"/>
<path d="M58.3137 57.5872C58.3269 57.7053 58.3401 57.7645 58.3401 57.8973C58.6591 57.853 58.8186 57.8381 59.1375 57.7939C59.1243 57.6758 59.1109 57.6168 59.0977 57.4987C58.792 57.5281 58.6326 57.543 58.3137 57.5872Z" fill="#AD92FF"/>
<path d="M52.2405 58.355C52.2405 58.4881 52.2405 58.547 52.2405 58.68C54.0479 58.4436 55.8686 58.2074 57.676 57.9861C57.6625 57.8679 57.6625 57.8088 57.6493 57.676C55.8419 57.8973 54.0479 58.1188 52.2405 58.355Z" fill="#6F33EA"/>
<path d="M59.7756 57.3953C59.8023 57.5134 59.8023 57.5725 59.8155 57.6907C61.7292 57.4395 63.6295 57.1886 65.5432 56.9375C65.5165 56.8194 65.4899 56.7605 65.4635 56.657C63.563 56.9079 61.6759 57.1591 59.7756 57.3953Z" fill="#6F33EA"/>
<path d="M45.9279 62.9616C45.8614 63.0797 45.8216 63.1387 45.7551 63.2568C46.0743 63.1979 46.2468 63.1829 46.5791 63.124C46.6588 63.0059 46.6854 62.9467 46.7519 62.8286C46.4196 62.8878 46.2468 62.9171 45.9279 62.9616Z" fill="#04D361"/>
<path d="M47.4963 62.7404C47.4298 62.8585 47.39 62.9027 47.3235 63.0208C48.679 62.8142 49.4097 62.6959 50.9117 62.4746C50.9779 62.3711 51.018 62.3122 51.0842 62.1941C49.5825 62.4154 48.8518 62.5188 47.4963 62.7404Z" fill="#6F33EA"/>
<path d="M58.3933 61.1749C58.3402 61.2784 58.3136 61.3373 58.2471 61.4407C58.5927 61.3965 58.7654 61.3669 59.1242 61.3226C59.1775 61.2192 59.2039 61.1603 59.2571 61.0568C58.9116 61.1011 58.7388 61.1307 58.3933 61.1749Z" fill="#04D361"/>
<path d="M51.8684 62.0757C51.8019 62.1938 51.7753 62.2381 51.6956 62.3562C53.6359 62.0757 55.5761 61.8099 57.5164 61.5441C57.5829 61.4409 57.6095 61.3818 57.6625 61.2783C55.7356 61.5441 53.8087 61.8099 51.8684 62.0757Z" fill="#6F33EA"/>
<path d="M59.9749 60.9536C59.9218 61.057 59.8952 61.116 59.8419 61.2194C61.9152 60.9389 63.9882 60.6585 66.0613 60.3631C66.1013 60.2597 66.128 60.2007 66.1544 60.0973C64.108 60.3927 62.0481 60.6731 59.9749 60.9536Z" fill="#6F33EA"/>
<path d="M44.6786 64.6741C44.5857 64.7775 44.5325 64.8364 44.4261 64.9399C44.7451 64.8807 44.9046 64.866 45.2235 64.8068C45.3298 64.7037 45.3829 64.6445 45.476 64.5413C45.1571 64.5856 44.9975 64.6149 44.6786 64.6741Z" fill="#04D361"/>
<path d="M46.2602 64.3643C46.1671 64.4677 46.1141 64.5266 46.0078 64.6301C47.3499 64.4085 48.0808 64.3051 49.6091 64.0838C49.7154 63.9804 49.7553 63.9214 49.8616 63.818C48.3467 64.0395 47.6158 64.1576 46.2602 64.3643Z" fill="#6F33EA"/>
<path d="M57.5426 62.7844C57.4497 62.8876 57.4099 62.9467 57.3168 63.0502C57.6889 63.0057 57.8749 62.9763 58.2471 62.9321C58.34 62.8286 58.3798 62.7695 58.4729 62.6663C58.1007 62.7105 57.9148 62.7401 57.5426 62.7844Z" fill="#04D361"/>
<path d="M50.6592 63.6997C50.5661 63.8031 50.513 63.862 50.4199 63.9655C52.4001 63.685 54.3935 63.4043 56.3734 63.1387C56.4665 63.0353 56.5064 62.9761 56.5995 62.8729C54.6193 63.1534 52.6391 63.4192 50.6592 63.6997Z" fill="#6F33EA"/>
<path d="M58.9782 62.5628C58.8986 62.6663 58.8585 62.7252 58.7656 62.8286C60.9051 62.5482 63.0447 62.2528 65.1844 61.9574C65.2641 61.8542 65.2907 61.795 65.3704 61.6916C63.2441 61.987 61.1046 62.2674 58.9782 62.5628Z" fill="#6F33EA"/>
<path d="M42.2336 65.7077C42.1273 65.8111 42.074 65.8554 41.9677 65.9588C42.2336 65.9143 42.3663 65.885 42.6322 65.8258C42.7385 65.7226 42.7917 65.6781 42.898 65.5749C42.6322 65.6338 42.4992 65.6634 42.2336 65.7077Z" fill="#04D361"/>
<path d="M43.4163 65.5011C43.31 65.6042 43.257 65.6487 43.1373 65.7519C44.32 65.5453 44.9845 65.4272 46.3933 65.2206C46.5128 65.1171 46.5661 65.0729 46.6724 64.9695C45.2636 65.1761 44.5991 65.2795 43.4163 65.5011Z" fill="#6F33EA"/>
<path d="M53.9016 63.995C53.7953 64.0985 53.742 64.1574 53.6225 64.2608C53.9812 64.2166 54.1674 64.187 54.5394 64.1427C54.6591 64.0393 54.7122 63.9804 54.8185 63.8769C54.4465 63.9212 54.2603 63.9359 53.9016 63.995Z" fill="#04D361"/>
<path d="M47.4163 64.8513C47.31 64.9548 47.2436 64.999 47.1373 65.1025C49.0376 64.822 50.9246 64.5562 52.8251 64.2904C52.9314 64.187 52.9979 64.1427 53.1042 64.0393C51.2037 64.2904 49.3034 64.5562 47.4163 64.8513Z" fill="#6F33EA"/>
<path d="M45.4762 62.1939C45.4229 62.312 45.3963 62.3711 45.3433 62.4893C46.5925 62.2826 47.257 62.1792 48.6524 61.9726C48.7054 61.8545 48.732 61.7953 48.7851 61.6772C47.4031 61.8987 46.7252 62.0019 45.4762 62.1939Z" fill="#04D361"/>
<path d="M55.6824 60.7174C55.6425 60.8355 55.6159 60.8798 55.5626 60.9981C55.895 60.9536 56.0545 60.9243 56.3999 60.8798C56.4531 60.7617 56.4663 60.7174 56.5064 60.5993C56.174 60.6436 56.0013 60.6585 55.6824 60.7174Z" fill="#04D361"/>
<path d="M49.5294 61.5735C49.4762 61.6916 49.4497 61.7508 49.3965 61.8689C51.2171 61.6031 53.0511 61.3373 54.8717 61.0864C54.925 60.9683 54.9382 60.9238 54.9914 60.8057C53.1706 61.0568 51.35 61.3077 49.5294 61.5735Z" fill="#6F33EA"/>
<path d="M57.1975 60.4959C57.1577 60.614 57.131 60.6582 57.0912 60.7763C59.098 60.4959 61.1046 60.2301 63.1246 59.9496C63.1512 59.8462 63.1644 59.7872 63.1911 59.6691C61.1977 59.9496 59.2043 60.2301 57.1975 60.4959Z" fill="#6F33EA"/>
<path d="M63.9219 59.5806C63.8953 59.6838 63.8821 59.743 63.8555 59.8611C68.2941 59.2409 72.7195 58.6208 77.1449 57.9122C77.1449 57.8088 77.1581 57.7496 77.1581 57.6464C72.7461 58.3404 68.3341 58.9751 63.9219 59.5806Z" fill="#6F33EA"/>
<path d="M49.4766 59.6691C49.4632 59.8019 49.45 59.861 49.4233 59.9792C50.8187 59.7872 51.5497 59.6838 53.0381 59.4918C53.0513 59.3737 53.0646 59.3145 53.078 59.1818C51.6029 59.3737 50.872 59.4771 49.4766 59.6691Z" fill="#04D361"/>
<path d="M60.1344 58.2516C60.1344 58.3697 60.1344 58.4289 60.1344 58.547C60.4667 58.5027 60.6261 58.488 60.9584 58.4435C60.9584 58.3254 60.9584 58.2665 60.9452 58.1484C60.6261 58.1927 60.4667 58.2073 60.1344 58.2516Z" fill="#04D361"/>
<path d="M53.862 59.0783C53.8486 59.1964 53.8486 59.2556 53.8221 59.3884C55.6958 59.1375 57.5697 58.8864 59.4435 58.6355C59.4435 58.5174 59.4435 58.4582 59.4435 58.3401C57.5829 58.5912 55.7224 58.8274 53.862 59.0783Z" fill="#6F33EA"/>
<path d="M61.6495 58.045C61.6627 58.1631 61.6627 58.222 61.6627 58.3401C63.6162 58.0745 65.5832 57.8087 67.5365 57.543C67.5233 57.4248 67.5101 57.3806 67.4835 57.2625C65.5431 57.528 63.5896 57.7938 61.6495 58.045Z" fill="#6F33EA"/>
<path d="M43.7885 64.0985C43.7088 64.2019 43.669 64.2608 43.5891 64.3643C44.7455 64.1576 45.3699 64.0542 46.7254 63.8327C46.8185 63.7292 46.8584 63.6703 46.938 63.5669C45.5825 63.7737 44.9447 63.8918 43.7885 64.0985Z" fill="#6F33EA"/>
<path d="M53.8618 62.5631C53.7821 62.6812 53.7423 62.7255 53.6492 62.8436C53.9947 62.7993 54.1675 62.7697 54.5262 62.7255C54.6061 62.6223 54.646 62.5631 54.7256 62.445C54.3801 62.4892 54.2073 62.5188 53.8618 62.5631Z" fill="#04D361"/>
<path d="M62.2208 61.3964C62.1544 61.4999 62.1277 61.559 62.0613 61.6622C62.4202 61.618 62.6062 61.5884 62.965 61.5441C63.0314 61.4409 63.0581 61.3818 63.1245 61.2783C62.7658 61.3228 62.5796 61.3522 62.2208 61.3964Z" fill="#04D361"/>
<path d="M47.6426 63.4488C47.5629 63.552 47.5229 63.6111 47.43 63.7146C49.2372 63.4339 51.058 63.1681 52.8786 62.9172C52.9583 62.8137 52.9981 62.7548 53.078 62.6514C51.2706 62.9172 49.4632 63.1681 47.6426 63.4488Z" fill="#6F33EA"/>
<path d="M55.3236 62.3415C55.2437 62.4447 55.2039 62.5039 55.1242 62.6071C57.1841 62.3266 59.2439 62.0461 61.3037 61.7657C61.3702 61.6622 61.41 61.6033 61.4633 61.4999C59.4299 61.7804 57.37 62.0608 55.3236 62.3415Z" fill="#6F33EA"/>
<path d="M63.8819 61.1749C63.8287 61.2781 63.7888 61.3373 63.7358 61.4405C65.8355 61.1453 67.9484 60.8649 70.0483 60.5548C70.1013 60.4514 70.1279 60.3922 70.1678 60.289C68.0681 60.5991 65.9684 60.8795 63.8819 61.1749Z" fill="#6F33EA"/>
<path d="M58.8453 54.5752C58.925 54.7082 58.9516 54.7671 59.0181 54.9001C60.8387 54.7082 62.6593 54.5013 64.4799 54.28C64.3868 54.1619 64.347 54.1027 64.2541 53.9846C62.4599 54.1912 60.6525 54.3832 58.8453 54.5752Z" fill="#6F33EA"/>
<path d="M65.0248 53.8959C65.1177 54.014 65.171 54.0731 65.2507 54.1913C66.3271 54.0731 66.8719 53.9993 67.9483 53.8665C67.8555 53.7484 67.8022 53.6892 67.6959 53.5858C66.6328 53.7188 66.1011 53.7778 65.0248 53.8959Z" fill="#04D361"/>
<path d="M68.4801 53.4975C68.5864 53.6156 68.6397 53.6745 68.746 53.778C68.9984 53.7484 69.1314 53.7337 69.397 53.7041C69.2907 53.586 69.2377 53.5418 69.1314 53.4236C68.8655 53.4532 68.7325 53.4679 68.4801 53.4975Z" fill="#04D361"/>
<path d="M57.5963 54.7082C57.6628 54.841 57.7026 54.9001 57.7691 55.0329C58.0748 55.0036 58.2209 54.9887 58.5266 54.9444C58.4602 54.8116 58.4203 54.7524 58.3539 54.6197C58.0482 54.6639 57.902 54.6786 57.5963 54.7082Z" fill="#AD92FF"/>
<path d="M45.0776 58.1631C45.0908 58.3108 45.1041 58.3697 45.1175 58.5174C46.4066 58.355 47.071 58.2665 48.4266 58.1039C48.4131 57.9711 48.4131 57.8973 48.3865 57.7645C47.0444 57.9269 46.3667 58.0007 45.0776 58.1631Z" fill="#04D361"/>
<path d="M49.1176 57.6757C49.1308 57.8085 49.144 57.8823 49.1575 58.0151C50.885 57.8085 52.5993 57.587 54.327 57.3803C54.3138 57.2476 54.3004 57.1884 54.2737 57.0556C52.5462 57.2622 50.8319 57.4689 49.1176 57.6757Z" fill="#6F33EA"/>
<path d="M56.0414 56.849C56.0678 56.9818 56.0812 57.0409 56.1076 57.1737C57.9815 56.9375 59.8686 56.7162 61.7424 56.4797C61.7026 56.3616 61.676 56.3027 61.6361 56.1846C59.7757 56.3912 57.915 56.6128 56.0414 56.849Z" fill="#6F33EA"/>
<path d="M62.4333 56.0665C62.4865 56.1846 62.4998 56.2436 62.5396 56.3617C66.6062 55.845 70.6729 55.3134 74.7261 54.7375C74.6462 54.6343 74.6198 54.5752 74.5399 54.472C70.5133 55.0329 66.4733 55.5645 62.4333 56.0665Z" fill="#6F33EA"/>
<path d="M54.7789 56.9967C54.8055 57.1295 54.8187 57.1886 54.8319 57.3214C55.1376 57.2772 55.2972 57.2625 55.6027 57.2329C55.5763 57.0999 55.5628 57.041 55.5362 56.9082C55.2307 56.9375 55.0712 56.9671 54.7789 56.9967Z" fill="#AD92FF"/>
<path d="M45.2636 61.3077C45.237 61.4258 45.2104 61.4996 45.184 61.6177C46.4198 61.4258 47.0842 61.3226 48.453 61.1157C48.4928 60.9976 48.5063 60.9387 48.5461 60.8206C47.1641 61.0272 46.4995 61.1157 45.2636 61.3077Z" fill="#04D361"/>
<path d="M49.2638 60.7172C49.2239 60.8353 49.2107 60.8944 49.1709 61.0126C50.9517 60.7468 52.7456 60.5105 54.5396 60.2594C54.5797 60.1413 54.5929 60.0824 54.6195 59.9643C52.8253 60.2152 51.0446 60.4663 49.2638 60.7172Z" fill="#6F33EA"/>
<path d="M56.4932 59.7131C56.4665 59.8315 56.4533 59.8904 56.4267 60.0085C58.4335 59.7427 60.4401 59.4622 62.4469 59.1964C62.4601 59.0783 62.4733 59.0341 62.4733 58.916C60.4799 59.1818 58.4865 59.4476 56.4932 59.7131Z" fill="#6F33EA"/>
<path d="M63.3237 58.7981C63.3103 58.9162 63.3105 58.9605 63.2971 59.0786C67.5896 58.488 71.8689 57.8826 76.1613 57.2182C76.1479 57.1148 76.1347 57.0559 76.1215 56.9524C71.8688 57.6021 67.6028 58.2073 63.3237 58.7981Z" fill="#6F33EA"/>
<path d="M55.1508 59.9056C55.1242 60.0237 55.111 60.0826 55.0712 60.2007C55.3901 60.1565 55.5629 60.1418 55.8818 60.0826C55.9084 59.9645 55.9216 59.9056 55.9482 59.7875C55.6293 59.8317 55.4698 59.8611 55.1508 59.9056Z" fill="#04D361"/>
<path d="M48.0676 54.4866C48.134 54.6341 48.1605 54.7228 48.2269 54.8703C49.928 54.7228 51.6291 54.5602 53.3302 54.4128C53.2637 54.2651 53.2239 54.2059 53.144 54.0582C51.4563 54.2059 49.7687 54.3536 48.0676 54.4866Z" fill="#6F33EA"/>
<path d="M54.8319 53.8961C54.9116 54.0289 54.9514 54.1027 55.0313 54.2504C56.7854 54.088 58.5396 53.9108 60.2937 53.7337C60.2008 53.6007 60.1476 53.5418 60.0547 53.4088C58.3138 53.586 56.5728 53.7484 54.8319 53.8961Z" fill="#6F33EA"/>
<path d="M60.6661 53.3498C60.7724 53.4826 60.8122 53.5418 60.9185 53.6746C64.3073 53.3202 67.7093 52.951 71.098 52.5671C70.9653 52.4639 70.8988 52.4047 70.7659 52.2866C67.3904 52.6705 64.0282 53.0102 60.6661 53.3498Z" fill="#6F33EA"/>
<path d="M53.7557 53.9993C53.8354 54.147 53.8752 54.2059 53.9417 54.3536C54.1809 54.324 54.3006 54.324 54.5396 54.2947C54.46 54.1617 54.4333 54.0878 54.3537 53.9401C54.1144 53.9697 53.9949 53.9697 53.7557 53.9993Z" fill="#AD92FF"/>
<path d="M41.2767 66.5198C41.1571 66.6232 41.1039 66.6675 40.9709 66.756C42.074 66.5347 42.7119 66.4163 44.1339 66.195C44.2668 66.0916 44.3333 66.0473 44.4528 65.9439C43.0442 66.1801 42.393 66.2982 41.2767 66.5198Z" fill="#04D361"/>
<path d="M41.848 66.948C41.7151 67.0365 41.6489 67.0956 41.5025 67.1842C41.8615 67.1252 42.0474 67.081 42.446 67.0218C42.5924 66.9333 42.6589 66.8741 42.7916 66.7856C42.4062 66.8594 42.2202 66.889 41.848 66.948Z" fill="#04D361"/>
<path d="M43.3499 66.6971C43.2169 66.8003 43.1373 66.8445 43.0043 66.9333C44.3068 66.7264 45.0243 66.6232 46.5527 66.4017C46.6988 66.2982 46.7653 66.254 46.9114 66.1655C45.3699 66.387 44.6524 66.4902 43.3499 66.6971Z" fill="#6F33EA"/>
<path d="M47.6954 66.0473C47.5493 66.1508 47.4828 66.195 47.3367 66.2836C49.3567 66.0031 51.3899 65.7373 53.4099 65.4864C53.5428 65.383 53.6225 65.3387 53.7555 65.2353C51.7354 65.5011 49.7154 65.7815 47.6954 66.0473Z" fill="#6F33EA"/>
<path d="M39.403 67.9223C39.2566 68.0111 39.1904 68.0554 39.044 68.1439C39.3497 68.085 39.5093 68.0554 39.8414 67.9962C39.9875 67.9077 40.0674 67.8634 40.2136 67.76C39.868 67.8192 39.7085 67.8634 39.403 67.9223Z" fill="#04D361"/>
<path d="M40.692 67.6715C40.5459 67.76 40.4662 67.8043 40.3201 67.9077C41.4496 67.7011 42.1008 67.5976 43.5094 67.391C43.669 67.3022 43.7487 67.2433 43.8948 67.1548C42.4862 67.3761 41.835 67.4795 40.692 67.6715Z" fill="#6F33EA"/>
<path d="M51.6292 66.1212C51.483 66.2244 51.4033 66.2686 51.2438 66.3574C52.7455 66.1654 54.2604 65.9882 55.7623 65.8111C55.9084 65.7077 55.9881 65.6634 56.1342 65.56C54.6325 65.752 53.1309 65.9292 51.6292 66.1212Z" fill="#04D361"/>
<path d="M44.639 67.0516C44.4794 67.1401 44.413 67.199 44.2536 67.2878C46.1805 67.0073 48.1206 66.7562 50.061 66.52C50.2203 66.4166 50.3002 66.3723 50.4463 66.2838C48.4928 66.52 46.5659 66.7709 44.639 67.0516Z" fill="#6F33EA"/>
<path d="M38.2733 69.0298C38.1005 69.1186 38.0076 69.1629 37.8348 69.2514C38.1005 69.2071 38.2334 69.1775 38.5125 69.1333C38.6985 69.0448 38.7784 69.0005 38.9511 68.9117C38.6721 68.956 38.5391 68.9856 38.2733 69.0298Z" fill="#04D361"/>
<path d="M39.4694 68.823C39.2967 68.9117 39.2038 68.956 39.0176 69.0445C40.2402 68.8526 40.9313 68.7491 42.433 68.5572C42.6192 68.4687 42.7121 68.4244 42.8848 68.3359C41.3831 68.5425 40.6921 68.631 39.4694 68.823Z" fill="#6F33EA"/>
<path d="M50.5661 67.3912C50.3933 67.4798 50.3005 67.5387 50.1143 67.6275C50.4864 67.5832 50.6858 67.5683 51.0578 67.524C51.244 67.4355 51.3237 67.3763 51.5096 67.2878C51.1243 67.3321 50.9383 67.3617 50.5661 67.3912Z" fill="#04D361"/>
<path d="M43.682 68.2324C43.4958 68.3209 43.4029 68.3652 43.2302 68.454C45.2634 68.2028 47.2966 67.9519 49.3432 67.7157C49.5292 67.627 49.6223 67.568 49.7951 67.4795C47.7484 67.7304 45.7152 67.9666 43.682 68.2324Z" fill="#6F33EA"/>
<path d="M52.3068 67.199C52.1341 67.3022 52.0412 67.3465 51.8684 67.4353C54.1541 67.1841 56.44 66.9183 58.7256 66.6674C58.8984 66.564 58.9781 66.5198 59.1508 66.4163C56.8652 66.6821 54.5793 66.9332 52.3068 67.199Z" fill="#6F33EA"/>
<path d="M32.3331 71.6729C32.1073 71.7614 32.001 71.791 31.7618 71.8795C32.001 71.8499 32.134 71.8204 32.3996 71.791C32.6256 71.7022 32.7452 71.6729 32.971 71.5841C32.7185 71.6137 32.5856 71.6284 32.3331 71.6729Z" fill="#04D361"/>
<path d="M33.4891 71.5103C33.2633 71.5991 33.1435 71.6433 32.9177 71.7172C34.1003 71.5695 34.7914 71.481 36.3065 71.3183C36.5457 71.2298 36.6652 71.1856 36.8911 71.097C35.363 71.2594 34.6719 71.3479 33.4891 71.5103Z" fill="#6F33EA"/>
<path d="M44.7587 70.3292C44.5195 70.4178 44.4 70.4769 44.174 70.5655C44.5595 70.5359 44.7587 70.5063 45.1575 70.4769C45.3968 70.3882 45.5163 70.3292 45.7421 70.2407C45.3435 70.285 45.1575 70.2997 44.7587 70.3292Z" fill="#04D361"/>
<path d="M37.6887 71.023C37.4494 71.1117 37.3297 71.156 37.0905 71.2445C39.1769 71.0379 41.2768 70.831 43.3631 70.654C43.6023 70.5652 43.7221 70.5209 43.9611 70.4178C41.8614 70.5948 39.7749 70.8017 37.6887 71.023Z" fill="#6F33EA"/>
<path d="M46.5661 70.1669C46.3269 70.2554 46.2206 70.3146 45.9813 70.4031C48.3335 70.1965 50.699 69.9896 53.0511 69.783C53.2904 69.6796 53.3967 69.6353 53.6227 69.5319C51.2704 69.7534 48.9182 69.9603 46.5661 70.1669Z" fill="#6F33EA"/>
<path d="M28.7983 72.8982C28.5458 72.9868 28.4261 73.0164 28.1736 73.1049C28.3997 73.0753 28.5192 73.0606 28.7848 73.031C29.0375 72.9425 29.157 72.9129 29.4095 72.8244C29.1438 72.8391 29.0241 72.8537 28.7983 72.8982Z" fill="#04D361"/>
<path d="M29.8745 72.7505C29.6218 72.8391 29.5023 72.8686 29.2365 72.9572C30.3662 72.8244 31.0438 72.7505 32.5323 72.6177C32.798 72.529 32.9177 72.4847 33.1834 72.3962C31.6951 72.5439 31.0172 72.6178 29.8745 72.7505Z" fill="#6F33EA"/>
<path d="M41.0508 71.7465C40.7852 71.8353 40.6654 71.8942 40.3998 71.9827C40.7852 71.9534 40.9844 71.9385 41.3832 71.9089C41.6488 71.8204 41.7817 71.7614 42.0344 71.6727C41.649 71.6876 41.4496 71.7023 41.0508 71.7465Z" fill="#04D361"/>
<path d="M33.9808 72.337C33.7283 72.4256 33.5954 72.4698 33.3295 72.5583C35.416 72.3664 37.5025 72.204 39.5888 72.0417C39.8546 71.9531 39.9876 71.9089 40.24 71.8055C38.1535 71.9678 36.0673 72.1451 33.9808 72.337Z" fill="#6F33EA"/>
<path d="M42.8714 71.5988C42.6057 71.6876 42.486 71.7465 42.2203 71.835C44.5991 71.658 46.9646 71.4807 49.3434 71.3037C49.6091 71.2002 49.7288 71.156 49.9944 71.0526C47.6157 71.2298 45.2369 71.4069 42.8714 71.5988Z" fill="#6F33EA"/>
<path d="M25.6485 73.6954C25.396 73.7692 25.2763 73.8135 25.0239 73.8874C25.17 73.8578 25.2365 73.8429 25.4093 73.8135C25.6617 73.7397 25.7946 73.6954 26.0471 73.6216C25.8743 73.6511 25.7946 73.6658 25.6485 73.6954Z" fill="#04D361"/>
<path d="M26.3792 73.5773C26.1268 73.6511 25.9938 73.6954 25.7414 73.7839C26.5388 73.6658 27.0703 73.6069 28.3063 73.4888C28.572 73.4 28.7049 73.3557 28.9708 73.2819C27.7216 73.4 27.19 73.4592 26.3792 73.5773Z" fill="#6F33EA"/>
<path d="M36.0406 72.6618C35.775 72.7505 35.6288 72.7948 35.3497 72.8833C35.7217 72.8537 35.9079 72.8391 36.2798 72.8095C36.5589 72.721 36.6919 72.6767 36.9709 72.5733C36.5988 72.6324 36.4128 72.6471 36.0406 72.6618Z" fill="#04D361"/>
<path d="M29.6353 73.2083C29.3696 73.2968 29.2367 73.341 28.9708 73.4149C30.8447 73.2379 32.7186 73.0902 34.5922 72.9571C34.8713 72.8686 35.0042 72.8244 35.2833 72.7358C33.3962 72.8686 31.5224 73.0163 29.6353 73.2083Z" fill="#6F33EA"/>
<path d="M33.2368 71.1411C33.0242 71.2296 32.9179 71.2592 32.7053 71.3477C33.6088 71.1854 34.1804 71.1115 35.4695 70.9345C35.6953 70.8457 35.8016 70.8014 36.0142 70.7276C34.7253 70.9049 34.1538 70.9787 33.2368 71.1411Z" fill="#04D361"/>
<path d="M43.1239 69.9304C42.8979 70.019 42.7916 70.0635 42.5657 70.152C42.9245 70.1224 43.1105 70.0928 43.4826 70.0635C43.7085 69.9747 43.8148 69.9304 44.0408 69.8272C43.6686 69.8715 43.4826 69.8862 43.1239 69.9304Z" fill="#04D361"/>
<path d="M36.7186 70.6393C36.4927 70.7278 36.3864 70.7721 36.1604 70.8608C38.0475 70.6246 39.9213 70.4327 41.8084 70.2407C42.0344 70.1519 42.1408 70.1077 42.3666 70.0192C40.4795 70.2111 38.5924 70.4031 36.7186 70.6393Z" fill="#6F33EA"/>
<path d="M44.8249 69.7534C44.5991 69.8419 44.4928 69.8861 44.2668 69.9896C46.5659 69.768 48.865 69.5465 51.164 69.3399C51.3899 69.2364 51.4962 69.1922 51.7088 69.0887C49.4097 69.3103 47.124 69.5318 44.8249 69.7534Z" fill="#6F33EA"/>
<path d="M52.5458 69.0149C52.3332 69.1184 52.2269 69.1626 52.0011 69.266C56.8517 68.8083 61.7023 68.3801 66.5263 67.7896C66.7389 67.6862 66.8453 67.6272 67.0579 67.5091C62.2339 68.0997 57.3832 68.5425 52.5458 69.0149Z" fill="#6F33EA"/>
<path d="M39.5225 69.2807C39.3365 69.3692 39.2302 69.4135 39.044 69.5023C40.3863 69.3103 41.1305 69.2218 42.7385 69.0298C42.9379 68.9411 43.031 68.8968 43.2302 68.8083C41.6222 69.0002 40.8646 69.0888 39.5225 69.2807Z" fill="#04D361"/>
<path d="M51.2569 67.8781C51.0709 67.9669 50.9778 68.0258 50.7784 68.1143C51.1638 68.0701 51.3632 68.0554 51.7486 68.0111C51.948 67.9077 52.0411 67.8634 52.2271 67.7749C51.8417 67.8192 51.6423 67.8488 51.2569 67.8781Z" fill="#04D361"/>
<path d="M44.0542 68.6902C43.855 68.7787 43.7619 68.8229 43.5625 68.9117C45.7022 68.6606 47.8286 68.4244 49.9681 68.2028C50.1675 68.1143 50.2604 68.0551 50.4466 67.9666C48.3202 68.2028 46.1939 68.439 44.0542 68.6902Z" fill="#6F33EA"/>
<path d="M53.0512 67.6862C52.8652 67.7896 52.7721 67.8338 52.5727 67.9224C54.8852 67.6715 57.1975 67.4353 59.5098 67.1841C59.696 67.0809 59.7889 67.0367 59.9617 66.9333C57.6626 67.1991 55.3503 67.4353 53.0512 67.6862Z" fill="#6F33EA"/>
<path d="M29.343 72.4849C29.1172 72.5588 28.9974 72.6031 28.7716 72.6769C29.4891 72.5441 29.9676 72.4703 31.1237 72.3226C31.363 72.2341 31.4825 72.2045 31.7352 72.1157C30.5656 72.2783 30.0607 72.3522 29.343 72.4849Z" fill="#6F33EA"/>
<path d="M38.433 71.4365C38.1803 71.525 38.0608 71.5692 37.8083 71.6578C38.1671 71.6284 38.3399 71.6135 38.712 71.5841C38.9645 71.4954 39.084 71.4511 39.3365 71.3626C38.9645 71.3922 38.7783 71.4069 38.433 71.4365Z" fill="#04D361"/>
<path d="M47.7885 70.6246C47.5493 70.7281 47.4164 70.7723 47.1771 70.8755C47.5891 70.8462 47.7885 70.8312 48.2003 70.787C48.453 70.6836 48.5725 70.6393 48.8117 70.5361C48.3997 70.5804 48.2003 70.595 47.7885 70.6246Z" fill="#04D361"/>
<path d="M32.3462 72.0565C32.1069 72.1451 31.9874 72.1893 31.735 72.2632C33.5158 72.0566 35.2965 71.8942 37.0639 71.7318C37.3165 71.6431 37.436 71.5988 37.6885 71.5103C35.9077 71.6727 34.127 71.8499 32.3462 72.0565Z" fill="#6F33EA"/>
<path d="M40.0941 71.2885C39.8417 71.3773 39.7221 71.4215 39.4695 71.5101C41.7554 71.3181 44.041 71.1262 46.3269 70.9342C46.5794 70.831 46.6991 70.7868 46.9515 70.698C44.6657 70.89 42.38 71.0819 40.0941 71.2885Z" fill="#6F33EA"/>
<path d="M49.6624 70.4767C49.4231 70.5799 49.2902 70.6244 49.051 70.7276C51.3767 70.5356 53.7156 70.3437 56.0411 70.1517C56.2938 70.0485 56.4133 69.9894 56.6525 69.8862C54.3136 70.0781 51.9879 70.2847 49.6624 70.4767Z" fill="#6F33EA"/>
<path d="M55.9214 64.9697C55.7884 65.0731 55.722 65.1174 55.5892 65.2206C57.8617 64.9401 60.1342 64.6596 62.4066 64.3643C62.5261 64.2611 62.5926 64.2168 62.7123 64.1134C60.4531 64.3938 58.1806 64.6892 55.9214 64.9697Z" fill="#6F33EA"/>
<path d="M63.6693 63.995C63.5497 64.0985 63.4833 64.1427 63.3638 64.2462C64.6927 64.0838 65.3571 63.995 66.6726 63.818C66.7924 63.7146 66.8454 63.6703 66.9651 63.5669C65.6626 63.7295 64.9982 63.818 63.6693 63.995Z" fill="#04D361"/>
<path d="M67.8821 63.4341C67.7626 63.5375 67.7094 63.5965 67.5898 63.6999C67.8953 63.6556 68.0549 63.6407 68.3606 63.5965C68.4801 63.493 68.5334 63.4341 68.6529 63.3307C68.3472 63.3749 68.201 63.3898 67.8821 63.4341Z" fill="#04D361"/>
<path d="M54.3668 65.1614C54.2339 65.2646 54.1674 65.3089 54.0213 65.4123C54.3935 65.3681 54.5795 65.3385 54.9516 65.2942C55.0846 65.1908 55.1508 65.1465 55.2838 65.0433C54.925 65.1023 54.739 65.1172 54.3668 65.1614Z" fill="#04D361"/>
<path d="M38.433 68.5427C38.2734 68.6313 38.1937 68.6755 38.0342 68.764C38.9911 68.5723 39.5625 68.4689 40.8384 68.2769C41.0112 68.1884 41.0908 68.1439 41.2502 68.0554C39.9877 68.2473 39.4029 68.3359 38.433 68.5427Z" fill="#04D361"/>
<path d="M41.9413 67.9373C41.782 68.0258 41.6889 68.0701 41.5293 68.1588C43.3501 67.893 45.1707 67.6419 47.0045 67.4206C47.1773 67.3318 47.2572 67.2729 47.4298 67.1844C45.5959 67.4206 43.7753 67.6568 41.9413 67.9373Z" fill="#6F33EA"/>
<path d="M49.4762 66.933C49.3168 67.0218 49.2237 67.0807 49.0644 67.1692C51.3102 66.8888 53.5695 66.6379 55.8153 66.3721C55.9749 66.2686 56.0545 66.2244 56.2139 66.1209C53.9681 66.3867 51.7222 66.6525 49.4762 66.933Z" fill="#6F33EA"/>
<path d="M57.1708 66.0031C57.0113 66.1063 56.9316 66.1505 56.772 66.2539C61.5164 65.693 66.2741 65.1467 71.005 64.497C71.1511 64.3936 71.231 64.3347 71.3637 64.2312C66.6461 64.8809 61.9152 65.4419 57.1708 66.0031Z" fill="#6F33EA"/>
<path d="M48.0011 67.1105C47.8418 67.199 47.7487 67.2582 47.5759 67.3467C47.9215 67.3025 48.1075 67.2878 48.453 67.2435C48.6258 67.1548 48.7057 67.0958 48.865 67.0071C48.5195 67.0516 48.3467 67.0662 48.0011 67.1105Z" fill="#04D361"/>
<path d="M34.4594 70.5507C34.26 70.6393 34.1669 70.6689 33.9675 70.7574C34.8446 70.595 35.3895 70.5062 36.652 70.3292C36.8646 70.2407 36.9577 70.1962 37.1703 70.1077C35.9079 70.2996 35.3497 70.3881 34.4594 70.5507Z" fill="#04D361"/>
<path d="M37.8348 70.0189C37.6354 70.1075 37.5291 70.1517 37.3165 70.2402C39.1505 69.9894 40.9977 69.7827 42.8316 69.5908C43.0442 69.502 43.1505 69.4578 43.3631 69.3692C41.5158 69.5612 39.6686 69.7827 37.8348 70.0189Z" fill="#6F33EA"/>
<path d="M45.4496 69.1333C45.237 69.2218 45.1307 69.266 44.9181 69.3695C47.2304 69.1333 49.5427 68.8971 51.855 68.6608C52.0678 68.5574 52.1607 68.5131 52.3733 68.4246C50.0742 68.6459 47.7619 68.8824 45.4496 69.1333Z" fill="#6F33EA"/>
<path d="M53.3835 68.3065C53.1843 68.4099 53.078 68.4542 52.8786 68.5574C57.676 68.0849 62.4735 67.6125 67.2709 67.022C67.4703 66.9186 67.5634 66.8596 67.7626 66.7562C62.9652 67.3467 58.1677 67.8192 53.3835 68.3065Z" fill="#6F33EA"/>
<path d="M43.868 69.2956C43.6419 69.3988 43.5224 69.4431 43.2964 69.5465C43.6818 69.5023 43.8812 69.4876 44.2666 69.4431C44.4926 69.3399 44.6121 69.2956 44.8379 69.1922C44.4525 69.2365 44.2533 69.2511 43.868 69.2956Z" fill="#04D361"/>
<path d="M45.0375 65.8554C44.918 65.9586 44.8516 66.0029 44.7186 66.1063C46.5791 65.8109 48.4397 65.5453 50.3134 65.2942C50.4463 65.1908 50.4996 65.1465 50.6325 65.0433C48.7587 65.3089 46.8982 65.56 45.0375 65.8554Z" fill="#6F33EA"/>
<path d="M52.6391 64.7777C52.5194 64.8809 52.4532 64.9252 52.3334 65.0286C54.5262 64.7332 56.7058 64.4528 58.8983 64.1723C59.0181 64.0689 59.0711 64.0246 59.1908 63.9212C56.9846 64.2019 54.8053 64.4824 52.6391 64.7777Z" fill="#6F33EA"/>
<path d="M59.9484 63.8178C59.8421 63.9212 59.7756 63.9654 59.6693 64.0686C63.8421 63.5373 68.0018 62.991 72.1613 62.4002C72.2542 62.297 72.3075 62.2379 72.4006 62.1347C68.2542 62.7252 64.1079 63.2715 59.9484 63.8178Z" fill="#6F33EA"/>
<path d="M51.3368 64.9399C51.2171 65.0433 51.1506 65.0876 51.0177 65.191C51.3102 65.1467 51.4431 65.1318 51.7354 65.0876C51.8684 64.9841 51.9214 64.9399 52.0543 64.8367C51.762 64.8956 51.6159 64.9103 51.3368 64.9399Z" fill="#04D361"/>
<path d="M23.7878 74.2712C23.5354 74.3451 23.4025 74.3893 23.1366 74.4632C23.6815 74.36 24.1202 74.3008 25.2497 74.1827C25.5288 74.0942 25.6617 74.0646 25.9274 73.9761C24.7979 74.1089 24.346 74.168 23.7878 74.2712Z" fill="#04D361"/>
<path d="M22.6982 74.729C22.4191 74.8175 22.2862 74.8471 22.0071 74.9356C22.2463 74.906 22.3793 74.8914 22.6583 74.8618C22.9374 74.7733 23.0836 74.7437 23.3626 74.6552C23.0701 74.6847 22.9374 74.6994 22.6982 74.729Z" fill="#04D361"/>
<path d="M23.7747 74.6109C23.4956 74.6996 23.3495 74.729 23.0704 74.8178C24.0804 74.729 24.705 74.6701 26.127 74.5666C26.4193 74.4781 26.5654 74.4338 26.8579 74.3451C25.4225 74.4632 24.7981 74.5224 23.7747 74.6109Z" fill="#6F33EA"/>
<path d="M27.6018 74.3008C27.3093 74.3893 27.1631 74.4336 26.8708 74.5221C28.9173 74.3893 30.9639 74.2563 32.9971 74.1382C33.3028 74.0497 33.449 73.9908 33.7415 73.902C31.7081 74.035 29.6482 74.1678 27.6018 74.3008Z" fill="#6F33EA"/>
<path d="M19.841 75.4525C19.562 75.5264 19.429 75.5706 19.15 75.6592C19.2829 75.6296 19.3626 75.6296 19.5486 75.6C19.8277 75.5115 19.9739 75.4819 20.253 75.3934C20.0537 75.408 19.9739 75.423 19.841 75.4525Z" fill="#04D361"/>
<path d="M20.5321 75.3491C20.253 75.4376 20.1068 75.4672 19.8145 75.5557C20.5188 75.4819 21.0105 75.4376 22.1933 75.3491C22.499 75.2603 22.6451 75.2161 22.9374 75.1276C21.7546 75.231 21.2497 75.2753 20.5321 75.3491Z" fill="#6F33EA"/>
<path d="M30.3928 74.6698C30.0871 74.7586 29.9278 74.8175 29.6221 74.906C31.1902 74.8175 32.7716 74.7437 34.3398 74.6698C34.6455 74.5666 34.8048 74.5224 35.1105 74.4189C33.5424 74.5075 31.961 74.5813 30.3928 74.6698Z" fill="#04D361"/>
<path d="M23.6019 75.0833C23.3096 75.1718 23.15 75.2161 22.8577 75.3046C24.705 75.1718 26.5522 75.0684 28.3994 74.9799C28.7049 74.8914 28.8645 74.8471 29.1702 74.7437C27.3095 74.8471 25.4491 74.9503 23.6019 75.0833Z" fill="#6F33EA"/>
<path d="M16.1464 76.604C15.8407 76.6926 15.6946 76.7371 15.3889 76.8107C15.5351 76.796 15.6148 76.796 15.7876 76.7813C16.0933 76.6926 16.2527 76.6483 16.5584 76.5745C16.3856 76.5745 16.2926 76.5894 16.1464 76.604Z" fill="#04D361"/>
<path d="M16.9041 76.5304C16.5985 76.6189 16.439 76.6632 16.1334 76.7517C16.9706 76.6928 17.5288 76.6632 18.8444 76.6043C19.1634 76.5155 19.3228 76.4712 19.6418 76.3827C18.3261 76.4417 17.7547 76.4712 16.9041 76.5304Z" fill="#6F33EA"/>
<path d="M27.0439 76.0431C26.7115 76.1465 26.5522 76.1908 26.2198 76.294C26.6052 76.2793 26.7912 76.2646 27.19 76.2497C27.5221 76.1465 27.6949 76.102 28.014 75.9988C27.6152 76.0135 27.4292 76.0282 27.0439 76.0431Z" fill="#04D361"/>
<path d="M20.3461 76.3382C20.0271 76.4267 19.8677 76.4712 19.5355 76.5598C21.5024 76.4712 23.4559 76.3825 25.4227 76.3086C25.7548 76.2054 25.9144 76.1612 26.2467 76.0724C24.2797 76.1612 22.313 76.2348 20.3461 76.3382Z" fill="#6F33EA"/>
<path d="M28.8244 75.969C28.4923 76.0724 28.3327 76.1167 28.0006 76.2201C30.366 76.1316 32.7315 76.0429 35.0971 75.9543C35.4292 75.8509 35.602 75.792 35.9343 75.6885C33.5555 75.7771 31.19 75.8805 28.8244 75.969Z" fill="#6F33EA"/>
<path d="M6.12628 79.4095C5.79403 79.498 5.62128 79.5571 5.27576 79.6457C5.39538 79.6457 5.46182 79.6457 5.60801 79.6457C5.95353 79.5571 6.12628 79.498 6.47181 79.4095C6.32562 79.4095 6.24588 79.4095 6.12628 79.4095Z" fill="#AD92FF"/>
<path d="M6.77762 79.3948C6.43209 79.4833 6.25934 79.5425 5.91382 79.631C6.65802 79.6163 7.17629 79.6163 8.43879 79.6014C8.7976 79.4982 8.98367 79.454 9.34247 79.3505C8.0667 79.3801 7.53511 79.3801 6.77762 79.3948Z" fill="#6F33EA"/>
<path d="M16.5851 79.2469C16.213 79.3503 16.0269 79.4092 15.6415 79.5127C16.0136 79.5127 16.213 79.5127 16.5984 79.498C16.9705 79.3946 17.1698 79.3356 17.5419 79.2322C17.1565 79.2469 16.9705 79.2469 16.5851 79.2469Z" fill="#04D361"/>
<path d="M10.0202 79.3503C9.66138 79.4537 9.47533 79.498 9.11652 79.6014C11.0435 79.5718 12.9572 79.5569 14.8841 79.5276C15.2562 79.4241 15.4423 79.3652 15.8144 79.2618C13.8741 79.2914 11.9472 79.3207 10.0202 79.3503Z" fill="#6F33EA"/>
<path d="M18.3526 79.2322C17.9805 79.3356 17.7944 79.3946 17.4091 79.498C19.7214 79.4684 22.0471 79.4537 24.3594 79.4241C24.7448 79.306 24.9308 79.2618 25.3162 79.1437C23.0039 79.1733 20.6782 79.2026 18.3526 79.2322Z" fill="#6F33EA"/>
<path d="M8.42545 78.6859C8.1065 78.7744 7.93377 78.8187 7.61481 78.9072C7.93377 78.8925 8.26597 78.8779 9.19624 78.863C9.54176 78.7744 9.71451 78.7155 10.0467 78.6267C9.10321 78.6563 8.75768 78.671 8.42545 78.6859Z" fill="#04D361"/>
<path d="M16.1863 78.494C15.8275 78.5972 15.6415 78.6414 15.2827 78.7449C15.6282 78.7449 15.8009 78.7302 16.1597 78.7302C16.5185 78.6268 16.7046 78.5825 17.0634 78.4791C16.7046 78.4791 16.5319 78.4791 16.1863 78.494Z" fill="#04D361"/>
<path d="M10.5518 78.6121C10.2063 78.7006 10.0335 78.7598 9.68799 78.8483C11.3093 78.804 12.9439 78.7744 14.5652 78.7448C14.924 78.6416 15.1101 78.5972 15.4689 78.494C13.8343 78.5382 12.1864 78.5678 10.5518 78.6121Z" fill="#6F33EA"/>
<path d="M17.8209 78.4497C17.4621 78.5531 17.276 78.5974 16.9172 78.7008C19.1897 78.6563 21.4621 78.627 23.7214 78.5827C24.0935 78.4793 24.2795 78.4201 24.6383 78.3169C22.3658 78.3612 20.0934 78.4054 17.8209 78.4497Z" fill="#6F33EA"/>
<path d="M25.4889 78.302C25.1167 78.4055 24.9308 78.4644 24.5586 78.5678C29.1169 78.494 33.6885 78.4201 38.2468 78.3612C38.6454 78.2431 38.8314 78.1839 39.2302 78.0511C34.6452 78.1397 30.0605 78.2135 25.4889 78.302Z" fill="#6F33EA"/>
<path d="M15.6014 77.121C15.2825 77.2095 15.123 77.2537 14.7908 77.3423C15.814 77.298 16.4652 77.2686 17.927 77.2095C18.2593 77.121 18.432 77.0618 18.7643 76.9733C17.2892 77.0471 16.638 77.0767 15.6014 77.121Z" fill="#04D361"/>
<path d="M26.6453 76.7077C26.2997 76.8109 26.127 76.8551 25.7946 76.9586C26.1932 76.9439 26.3926 76.9439 26.7914 76.929C27.137 76.8258 27.3095 76.7815 27.6551 76.6781C27.2298 76.6781 27.0306 76.6928 26.6453 76.7077Z" fill="#04D361"/>
<path d="M19.5351 76.9586C19.2029 77.0471 19.0301 77.106 18.6979 77.1948C20.7843 77.1209 22.8707 77.0471 24.9704 76.9879C25.3159 76.8847 25.4887 76.8405 25.821 76.737C23.7214 76.796 21.6349 76.8698 19.5351 76.9586Z" fill="#6F33EA"/>
<path d="M28.4789 76.6485C28.1334 76.7519 27.9606 76.7962 27.6151 76.8994C29.9806 76.8258 32.3459 76.7519 34.6983 76.6928C35.0438 76.5893 35.2166 76.5304 35.5622 76.427C33.2098 76.4861 30.8445 76.56 28.4789 76.6485Z" fill="#6F33EA"/>
<path d="M36.0406 73.7692C35.7484 73.8727 35.602 73.9169 35.2965 74.0054C37.7283 73.8727 40.1603 73.725 42.6056 73.5922C42.9113 73.4888 43.0574 73.4445 43.3497 73.3411C40.9045 73.4888 38.4727 73.6215 36.0406 73.7692Z" fill="#6F33EA"/>
<path d="M44.3599 73.2821C44.0674 73.3853 43.9212 73.4445 43.6155 73.5477C45.0376 73.4741 45.7419 73.4296 47.0974 73.356C47.4031 73.2525 47.5493 73.1934 47.8417 73.0902C46.4862 73.164 45.7819 73.1934 44.3599 73.2821Z" fill="#04D361"/>
<path d="M48.7985 73.0163C48.506 73.1195 48.3466 73.1787 48.0541 73.2821C48.3731 73.2672 48.5326 73.2525 48.8383 73.2376C49.144 73.1344 49.2902 73.0753 49.5825 72.9721C49.2768 72.9868 49.1174 73.0014 48.7985 73.0163Z" fill="#04D361"/>
<path d="M34.3928 73.8577C34.1003 73.9465 33.9541 74.0054 33.6484 74.094C34.0338 74.0646 34.2332 74.0646 34.6318 74.035C34.9375 73.9465 35.0837 73.8873 35.3762 73.7988C34.9774 73.8284 34.7782 73.8431 34.3928 73.8577Z" fill="#04D361"/>
<path d="M17.9141 76.0135C17.635 76.0873 17.4888 76.1316 17.1965 76.2201C17.5819 76.1612 17.9407 76.1167 18.8975 76.0431C19.2032 75.9543 19.3494 75.9101 19.655 75.8362C18.6849 75.9101 18.3261 75.9396 17.9141 76.0135Z" fill="#04D361"/>
<path d="M20.1732 75.7919C19.8675 75.8807 19.7213 75.925 19.4156 76.0135C21.0502 75.8954 22.6848 75.8215 24.3194 75.733C24.6383 75.6442 24.7979 75.6 25.1036 75.4968C23.4555 75.5853 21.8211 75.6738 20.1732 75.7919Z" fill="#6F33EA"/>
<path d="M27.1367 75.3934C26.8176 75.4821 26.6583 75.5411 26.3394 75.6298C28.6649 75.5264 30.9774 75.423 33.3029 75.3198C33.6218 75.2163 33.7814 75.1721 34.1003 75.0686C31.7746 75.1572 29.4623 75.2753 27.1367 75.3934Z" fill="#6F33EA"/>
<path d="M35.1237 75.0095C34.8048 75.1129 34.6452 75.1572 34.3263 75.2606C39.1237 75.0537 43.9078 74.8618 48.7054 74.6109C49.0375 74.4928 49.2103 74.4336 49.5294 74.3155C44.7318 74.5813 39.9211 74.7882 35.1237 75.0095Z" fill="#6F33EA"/>
<path d="M25.6617 75.4672C25.3428 75.556 25.1832 75.6002 24.8775 75.7034C25.223 75.6888 25.3958 75.6741 25.7414 75.6592C26.0603 75.5707 26.2199 75.5115 26.5388 75.423C26.18 75.4376 26.0072 75.4377 25.6617 75.4672Z" fill="#04D361"/>
<path d="M10.8309 77.9919C10.512 78.0805 10.3658 78.1247 10.0468 78.2135C10.3126 78.1839 10.6183 78.1692 11.4954 78.1396C11.8276 78.0511 11.9871 78.0066 12.3193 77.9181C11.4422 77.9477 11.1233 77.9623 10.8309 77.9919Z" fill="#04D361"/>
<path d="M12.8243 77.889C12.4921 77.9775 12.3193 78.0218 11.9871 78.1103C13.5685 78.0514 15.1499 78.0071 16.7314 77.9628C17.0769 77.8594 17.2497 77.8151 17.5952 77.7266C16.0005 77.7856 14.4057 77.8298 12.8243 77.889Z" fill="#6F33EA"/>
<path d="M19.602 77.6821C19.2565 77.7853 19.0837 77.8296 18.7249 77.933C21.024 77.8741 23.323 77.8149 25.6355 77.7706C25.9942 77.6672 26.167 77.6083 26.5258 77.5049C24.2135 77.5491 21.9144 77.6083 19.602 77.6821Z" fill="#6F33EA"/>
<path d="M27.5355 77.4753C27.1765 77.5787 27.004 77.6376 26.645 77.7411C31.283 77.6376 35.921 77.5344 40.5456 77.431C40.9178 77.3129 41.1038 77.2537 41.476 77.1356C36.838 77.2391 32.1867 77.3572 27.5355 77.4753Z" fill="#6F33EA"/>
<path d="M18.1534 77.7115C17.8079 77.8147 17.6351 77.8592 17.2763 77.9624C17.6085 77.9477 17.7813 77.9477 18.1401 77.933C18.4856 77.8296 18.6717 77.7853 19.0172 77.6819C18.6584 77.6966 18.4856 77.7115 18.1534 77.7115Z" fill="#04D361"/>
<path d="M26.4192 73.9318C26.1401 74.0203 26.0074 74.0499 25.7283 74.1385C27.4691 73.9761 29.21 73.8431 30.9509 73.7103C31.2434 73.6218 31.3761 73.5775 31.6552 73.4887C29.9145 73.6364 28.1601 73.7692 26.4192 73.9318Z" fill="#6F33EA"/>
<path d="M33.7285 73.3558C33.4494 73.4443 33.3031 73.4885 33.0108 73.592C35.3497 73.4296 37.6755 73.2819 40.0144 73.1342C40.3067 73.0308 40.4396 72.9865 40.7319 72.8833C38.393 73.0308 36.0675 73.1934 33.7285 73.3558Z" fill="#6F33EA"/>
<path d="M41.5823 72.8244C41.3033 72.9278 41.1571 72.9721 40.8646 73.0755C45.2634 72.7948 49.6622 72.5292 54.0477 72.2192C54.34 72.1011 54.4864 72.0566 54.7655 71.9384C50.3799 72.2634 45.9811 72.5439 41.5823 72.8244Z" fill="#6F33EA"/>
<path d="M32.3859 73.4443C32.1069 73.533 31.9607 73.5773 31.6682 73.6658C31.9607 73.6511 32.1069 73.6362 32.4126 73.6215C32.7049 73.533 32.8378 73.4888 33.1301 73.4C32.8244 73.4149 32.6782 73.4296 32.3859 73.4443Z" fill="#04D361"/>
<path d="M83.5637 48.7285C83.0986 48.507 82.5935 48.4185 82.0886 48.4627L41.3832 51.5191C40.8118 51.5633 40.5195 52.3311 40.9049 52.8035C41.2104 53.1875 41.5427 53.6746 41.8484 54.2651C41.8883 54.2357 41.9147 54.2208 41.9547 54.1915C42.1674 53.7927 42.5261 53.5418 42.9381 53.4975L84.1218 49.009C83.9224 48.9056 83.7365 48.817 83.5637 48.7285Z" fill="#D7D7E1"/>
<path d="M52.3203 4.03565C50.3269 3.29742 44.6124 -2.31316 44.4797 1.08272C44.3467 4.4786 49.2638 9.64625 49.2638 9.64625C44.6124 6.6933 43.3499 1.7176 43.3499 1.7176C42.2603 1.64378 41.423 2.05719 41.2901 3.44507C40.8915 7.87449 46.7387 12.5992 46.7387 12.5992C41.556 9.94154 40.4927 4.92154 40.4927 4.92154C39.6953 5.21683 38.3664 7.13624 40.4927 10.5321C42.619 13.928 46.8716 15.6998 46.8716 15.6998C48.865 11.418 52.7191 9.05565 54.3136 10.3845C55.9084 11.7133 54.5795 14.5186 54.5795 14.5186C56.5729 14.3709 56.8388 16.5856 56.8388 16.5856C55.111 14.9615 52.7191 15.5521 52.7191 15.5521C54.4466 14.5186 54.8454 9.94154 52.3203 10.9751C49.7954 12.0086 45.8086 17.0286 48.4664 19.3909C51.1243 21.7533 58.3669 19.0218 58.3669 19.0218C61.304 19.0218 63.7226 19.3614 65.6229 19.9372C66.2077 15.8917 68.4403 11.2408 70.2743 7.93354C62.8455 4.64102 53.7555 4.56717 52.3203 4.03565Z" fill="url(#paint1_linear_628_4)"/>
<path d="M48.4664 48.7728C48.4664 48.7728 49.5296 50.6921 53.1178 50.5444C53.1178 50.5444 51.1242 57.6315 53.5164 58.8128C55.8421 59.9643 56.7856 51.7403 56.8387 51.2975C56.8387 51.2826 56.8387 51.2826 56.8387 51.2826V51.2975C56.7989 51.6961 56.0946 58.3846 57.769 58.8128C59.4965 59.2556 60.161 51.2826 60.161 51.2826C60.161 51.2826 60.0283 59.1079 62.5532 57.4838C65.0781 55.8596 63.3506 47.0009 58.4335 41.3903C54.8187 37.2563 49.9018 34.7316 43.6292 35.573C41.875 42.2466 42.7387 46.9567 43.7355 49.688C45.3965 49.0679 46.9781 48.6989 48.4664 48.7728Z" fill="url(#paint2_linear_628_4)"/>
<path d="M43.5476 52.836C43.6906 52.5607 43.5233 52.1555 43.1737 51.9314C42.8241 51.7072 42.4247 51.7486 42.2815 52.0239C42.1384 52.2994 42.3058 52.7044 42.6554 52.9288C43.005 53.1529 43.4045 53.1115 43.5476 52.836Z" fill="#AAAABC"/>
<path d="M45.4081 52.6883C45.5512 52.413 45.3838 52.0078 45.0342 51.7837C44.6846 51.5593 44.2851 51.6009 44.1422 51.8762C43.999 52.1517 44.1665 52.5567 44.5159 52.7811C44.8655 53.0052 45.2649 52.9638 45.4081 52.6883Z" fill="#AAAABC"/>
<path d="M47.2685 52.5403C47.4116 52.2651 47.2444 51.8599 46.8948 51.6357C46.5452 51.4114 46.1458 51.453 46.0026 51.7283C45.8594 52.0038 46.0269 52.4087 46.3765 52.6331C46.7261 52.8573 47.1255 52.8158 47.2685 52.5403Z" fill="#04D361"/>
<path d="M33.3295 24.7948L35.0174 27.6296C35.23 27.9839 35.004 28.4712 34.6054 28.4712C34.3662 28.4712 34.22 28.7664 34.3527 28.9879L36.3595 32.4428C36.4126 32.5463 36.5057 32.5905 36.612 32.5905H37.0506C37.25 32.5905 37.436 32.7233 37.5025 32.9302C37.7417 33.5946 38.2598 35.1299 38.632 36.5179L38.2865 36.6509C38.2865 36.6509 37.7151 34.4952 37.21 33.1368C37.1569 32.9891 37.024 32.9153 36.8911 32.9302L36.5057 32.9891C36.3197 33.0187 36.1335 32.9302 36.0272 32.7382L33.8346 28.8994C33.6352 28.5598 33.8346 28.1167 34.1934 28.0724L34.2997 28.0578C34.5123 28.0282 34.6318 27.792 34.5389 27.5704L33.3295 24.7948Z" fill="#D7D7E1"/>
<path d="M35.1638 29.387L36.5193 31.6902C36.6124 31.8379 36.7585 31.8968 36.8781 31.8379H36.8913C37.0907 31.7491 37.1571 31.4244 37.0242 31.1882L35.6554 28.885C35.589 28.7815 35.4959 28.7224 35.403 28.7077C35.1371 28.7077 34.991 29.1063 35.1638 29.387Z" fill="#8157E4"/>
<defs>
<radialGradient id="paint0_radial_628_4" cx="0" cy="0" r="1" gradientUnits="userSpaceOnUse" gradientTransform="translate(84.8187 41.0391) scale(110.213 122.449)">
<stop offset="0.2882" stop-color="#27272E"/>
<stop offset="1" stop-color="#121214"/>
</radialGradient>
<linearGradient id="paint1_linear_628_4" x1="69.9224" y1="17.8561" x2="29.3484" y2="5.0532" gradientUnits="userSpaceOnUse">
<stop offset="0.3276" stop-color="#8157E4"/>
<stop offset="0.395" stop-color="#7D55DD"/>
<stop offset="0.495" stop-color="#724EC9"/>
<stop offset="0.615" stop-color="#6143A8"/>
<stop offset="0.7508" stop-color="#49347A"/>
<stop offset="0.8976" stop-color="#2A2141"/>
<stop offset="1" stop-color="#121214"/>
</linearGradient>
<linearGradient id="paint2_linear_628_4" x1="69.3744" y1="39.1366" x2="32.8268" y2="52.5907" gradientUnits="userSpaceOnUse">
<stop offset="0.3276" stop-color="#8157E4"/>
<stop offset="0.395" stop-color="#7D55DD"/>
<stop offset="0.495" stop-color="#724EC9"/>
<stop offset="0.615" stop-color="#6143A8"/>
<stop offset="0.7508" stop-color="#49347A"/>
<stop offset="0.8976" stop-color="#2A2141"/>
<stop offset="1" stop-color="#121214"/>
</linearGradient>
</defs>
</svg>
